<?xml version="1.0" encoding="iso-8859-1"?>
<!-- Uploaded to: SVG Repo, www.svgrepo.com, Generator: SVG Repo Mixer Tools -->
<svg height="800px" width="800px" version="1.1" id="Layer_1" xmlns="http://www.w3.org/2000/svg" xmlns:xlink="http://www.w3.org/1999/xlink" 
	 viewBox="0 0 512 512" xml:space="preserve">
<polygon style="fill:#F1DCBD;" points="324.573,43.685 439.635,232.451 363.426,232.451 256.009,232.451 72.37,232.451 
	187.432,43.685 256.034,43.685 "/>
<path style="fill:#FF8751;" d="M282.844,352.166v147.049h-53.619V352.166c0-14.805,11.992-26.809,26.784-26.822
	c0.013,0,0.013,0,0.026,0c7.402,0,14.101,3.004,18.96,7.85C279.84,338.052,282.844,344.764,282.844,352.166z"/>
<path d="M72.37,245.235h170.854v69.464c-15.56,5.341-26.784,20.118-26.784,37.467v134.264h-29.021
	c-7.061,0-12.785,5.724-12.785,12.785c0,7.061,5.724,12.785,12.785,12.785H324.65c7.061,0,12.785-5.724,12.785-12.785
	c0-7.061-5.724-12.785-12.785-12.785h-29.021V352.166c0-10.568-4.113-20.512-11.607-28.024c-4.362-4.351-9.558-7.552-15.229-9.476
	v-69.431h81.847v53.593c0,7.061,5.724,12.785,12.785,12.785s12.785-5.724,12.785-12.785v-53.593h63.425
	c4.622,0,8.884-2.494,11.147-6.525c2.263-4.03,2.175-8.967-0.231-12.914L335.487,37.031c-2.32-3.807-6.458-6.13-10.917-6.13h-55.754
	V12.785c0-7.06-5.724-12.785-12.785-12.785c-7.061,0-12.785,5.725-12.785,12.785v18.116h-55.818c-4.459,0-8.596,2.323-10.917,6.13
	L61.451,225.796c-2.406,3.947-2.494,8.884-0.231,12.914C63.487,242.741,67.748,245.235,72.37,245.235z M270.059,486.431h-28.05
	V352.166c0-7.733,6.285-14.031,14.025-14.038c3.742,0,7.269,1.463,9.908,4.094c2.655,2.662,4.118,6.194,4.118,9.944v134.265H270.059
	z M194.612,56.47h122.781l99.476,163.196H95.136L194.612,56.47z"/>
<path d="M363.426,321.521c-7.061,0-12.785,5.724-12.785,12.785v5.433c0,7.061,5.724,12.785,12.785,12.785
	s12.785-5.724,12.785-12.785v-5.433C376.21,327.245,370.487,321.521,363.426,321.521z"/>
</svg>